<mxfile host="65bd71144e">
    <diagram id="QSWu9Wnhy0qAhUBLh6C_" name="第 1 页">
        <mxGraphModel dx="1538" dy="2064" grid="1" gridSize="10" guides="1" tooltips="1" connect="1" arrows="1" fold="1" page="1" pageScale="1" pageWidth="827" pageHeight="1169" math="0" shadow="0">
            <root>
                <mxCell id="0"/>
                <mxCell id="1" parent="0"/>
                <mxCell id="10" value="报名表单组件主流程图" style="swimlane;childLayout=stackLayout;resizeParent=1;resizeParentMax=0;startSize=20;" parent="1" vertex="1">
                    <mxGeometry x="120" y="-120" width="755" height="600" as="geometry"/>
                </mxCell>
                <mxCell id="11" value="pc" style="swimlane;startSize=20;" parent="10" vertex="1">
                    <mxGeometry y="20" width="380" height="580" as="geometry"/>
                </mxCell>
                <mxCell id="81" style="edgeStyle=none;curved=1;rounded=0;sketch=1;hachureGap=4;orthogonalLoop=1;jettySize=auto;html=1;exitX=0.5;exitY=1;exitDx=0;exitDy=0;entryX=0.5;entryY=0;entryDx=0;entryDy=0;fontFamily=Architects Daughter;fontSource=https%3A%2F%2Ffonts.googleapis.com%2Fcss%3Ffamily%3DArchitects%2BDaughter;fontSize=12;endArrow=classicThin;endFill=1;startSize=14;endSize=14;sourcePerimeterSpacing=8;targetPerimeterSpacing=8;" parent="11" source="15" target="20" edge="1">
                    <mxGeometry relative="1" as="geometry"/>
                </mxCell>
                <mxCell id="15" value="开始" style="rounded=1;whiteSpace=wrap;html=1;" parent="11" vertex="1">
                    <mxGeometry x="40" y="40" width="80" height="30" as="geometry"/>
                </mxCell>
                <mxCell id="82" style="edgeStyle=none;curved=1;rounded=0;sketch=1;hachureGap=4;orthogonalLoop=1;jettySize=auto;html=1;exitX=0.5;exitY=1;exitDx=0;exitDy=0;entryX=0.5;entryY=0;entryDx=0;entryDy=0;fontFamily=Architects Daughter;fontSource=https%3A%2F%2Ffonts.googleapis.com%2Fcss%3Ffamily%3DArchitects%2BDaughter;fontSize=12;endArrow=classicThin;endFill=1;startSize=14;endSize=14;sourcePerimeterSpacing=8;targetPerimeterSpacing=8;" parent="11" source="20" target="26" edge="1">
                    <mxGeometry relative="1" as="geometry"/>
                </mxCell>
                <mxCell id="20" value="&lt;font style=&quot;font-size: 10px&quot;&gt;获取地址栏参数&lt;/font&gt;" style="rounded=0;whiteSpace=wrap;html=1;" parent="11" vertex="1">
                    <mxGeometry x="40" y="110" width="80" height="40" as="geometry"/>
                </mxCell>
                <mxCell id="63" value="" style="edgeStyle=none;html=1;fontSize=10;startArrow=none;" parent="11" edge="1">
                    <mxGeometry relative="1" as="geometry">
                        <mxPoint x="145" y="190" as="sourcePoint"/>
                        <mxPoint x="145" y="190" as="targetPoint"/>
                    </mxGeometry>
                </mxCell>
                <mxCell id="83" style="edgeStyle=none;curved=1;rounded=0;sketch=1;hachureGap=4;orthogonalLoop=1;jettySize=auto;html=1;exitX=0.5;exitY=1;exitDx=0;exitDy=0;entryX=0.5;entryY=0;entryDx=0;entryDy=0;fontFamily=Architects Daughter;fontSource=https%3A%2F%2Ffonts.googleapis.com%2Fcss%3Ffamily%3DArchitects%2BDaughter;fontSize=12;endArrow=classicThin;endFill=1;startSize=14;endSize=14;sourcePerimeterSpacing=8;targetPerimeterSpacing=8;" parent="11" source="26" target="30" edge="1">
                    <mxGeometry relative="1" as="geometry"/>
                </mxCell>
                <mxCell id="26" value="获取活动信息" style="rhombus;whiteSpace=wrap;html=1;fontSize=10;" parent="11" vertex="1">
                    <mxGeometry x="40" y="170" width="80" height="40" as="geometry"/>
                </mxCell>
                <mxCell id="85" style="edgeStyle=none;curved=1;rounded=0;sketch=1;hachureGap=4;orthogonalLoop=1;jettySize=auto;html=1;exitX=0.5;exitY=1;exitDx=0;exitDy=0;entryX=0.5;entryY=0;entryDx=0;entryDy=0;fontFamily=Architects Daughter;fontSource=https%3A%2F%2Ffonts.googleapis.com%2Fcss%3Ffamily%3DArchitects%2BDaughter;fontSize=12;startArrow=none;startFill=0;endArrow=classicThin;endFill=1;startSize=14;endSize=14;sourcePerimeterSpacing=8;targetPerimeterSpacing=8;" parent="11" source="30" target="33" edge="1">
                    <mxGeometry relative="1" as="geometry"/>
                </mxCell>
                <mxCell id="30" value="获取题目信息" style="rhombus;whiteSpace=wrap;html=1;fontSize=10;" parent="11" vertex="1">
                    <mxGeometry x="40" y="240" width="75" height="40" as="geometry"/>
                </mxCell>
                <mxCell id="79" style="edgeStyle=none;curved=1;rounded=0;sketch=1;hachureGap=4;orthogonalLoop=1;jettySize=auto;html=1;exitX=0.5;exitY=1;exitDx=0;exitDy=0;entryX=0.5;entryY=0;entryDx=0;entryDy=0;fontFamily=Architects Daughter;fontSource=https%3A%2F%2Ffonts.googleapis.com%2Fcss%3Ffamily%3DArchitects%2BDaughter;fontSize=12;endArrow=classicThin;startSize=14;endSize=14;sourcePerimeterSpacing=8;targetPerimeterSpacing=8;endFill=1;" parent="11" source="33" target="77" edge="1">
                    <mxGeometry relative="1" as="geometry"/>
                </mxCell>
                <mxCell id="33" value="&lt;span style=&quot;font-size: 10px&quot;&gt;初始化tab/题目/翻译等&lt;/span&gt;" style="rounded=0;whiteSpace=wrap;html=1;" parent="11" vertex="1">
                    <mxGeometry x="40" y="310" width="80" height="30" as="geometry"/>
                </mxCell>
                <mxCell id="38" value="成功" style="text;html=1;align=center;verticalAlign=middle;resizable=0;points=[];autosize=1;strokeColor=none;fillColor=none;fontSize=10;" parent="11" vertex="1">
                    <mxGeometry x="80" y="210" width="40" height="20" as="geometry"/>
                </mxCell>
                <mxCell id="18" value="&lt;font style=&quot;font-size: 10px&quot;&gt;提示失败&lt;/font&gt;" style="rounded=0;whiteSpace=wrap;html=1;" parent="11" vertex="1">
                    <mxGeometry x="150" y="410" width="70" height="30" as="geometry"/>
                </mxCell>
                <mxCell id="80" style="edgeStyle=none;curved=1;rounded=0;sketch=1;hachureGap=4;orthogonalLoop=1;jettySize=auto;html=1;exitX=0.5;exitY=1;exitDx=0;exitDy=0;entryX=0.5;entryY=0;entryDx=0;entryDy=0;fontFamily=Architects Daughter;fontSource=https%3A%2F%2Ffonts.googleapis.com%2Fcss%3Ffamily%3DArchitects%2BDaughter;fontSize=12;endArrow=classicThin;startSize=14;endSize=14;sourcePerimeterSpacing=8;targetPerimeterSpacing=8;endFill=1;" parent="11" source="50" target="51" edge="1">
                    <mxGeometry relative="1" as="geometry"/>
                </mxCell>
                <mxCell id="50" value="&lt;font style=&quot;font-size: 10px&quot;&gt;根据返回结果跳转至直播间或者预约页&lt;/font&gt;" style="rounded=0;whiteSpace=wrap;html=1;" parent="11" vertex="1">
                    <mxGeometry x="40" y="440" width="80" height="60" as="geometry"/>
                </mxCell>
                <mxCell id="51" value="结束" style="rounded=1;whiteSpace=wrap;html=1;" parent="11" vertex="1">
                    <mxGeometry x="40" y="540" width="80" height="30" as="geometry"/>
                </mxCell>
                <mxCell id="77" value="收集信息" style="whiteSpace=wrap;html=1;sketch=1;hachureGap=4;fontFamily=Architects Daughter;fontSource=https%3A%2F%2Ffonts.googleapis.com%2Fcss%3Ffamily%3DArchitects%2BDaughter;fontSize=12;" parent="11" vertex="1">
                    <mxGeometry x="40" y="370" width="80" height="30" as="geometry"/>
                </mxCell>
                <mxCell id="39" value="成功" style="text;html=1;align=center;verticalAlign=middle;resizable=0;points=[];autosize=1;strokeColor=none;fillColor=none;fontSize=10;" parent="11" vertex="1">
                    <mxGeometry x="80" y="280" width="40" height="20" as="geometry"/>
                </mxCell>
                <mxCell id="86" style="edgeStyle=none;html=1;exitX=1;exitY=0.5;exitDx=0;exitDy=0;fontSize=10;entryX=0;entryY=0.5;entryDx=0;entryDy=0;fillColor=#e3c800;strokeColor=#B09500;" parent="11" target="24" edge="1">
                    <mxGeometry relative="1" as="geometry">
                        <mxPoint x="415" y="384.5" as="targetPoint"/>
                        <mxPoint x="120" y="384.5" as="sourcePoint"/>
                        <Array as="points">
                            <mxPoint x="520" y="385"/>
                        </Array>
                    </mxGeometry>
                </mxCell>
                <mxCell id="87" value="提交表单或验证表单" style="text;html=1;align=center;verticalAlign=middle;resizable=0;points=[];autosize=1;strokeColor=none;fillColor=none;fontSize=10;" parent="11" vertex="1">
                    <mxGeometry x="130" y="360" width="110" height="20" as="geometry"/>
                </mxCell>
                <mxCell id="109" value="未开始会提示开始时间" style="text;html=1;align=center;verticalAlign=middle;resizable=0;points=[];autosize=1;strokeColor=none;fillColor=none;fontSize=10;" parent="11" vertex="1">
                    <mxGeometry x="145" y="470" width="120" height="20" as="geometry"/>
                </mxCell>
                <mxCell id="66" value="sdk" style="swimlane;startSize=20;" parent="10" vertex="1">
                    <mxGeometry x="380" y="20" width="120" height="580" as="geometry"/>
                </mxCell>
                <mxCell id="12" value="后端" style="swimlane;startSize=20;" parent="10" vertex="1">
                    <mxGeometry x="500" y="20" width="135" height="580" as="geometry"/>
                </mxCell>
                <mxCell id="24" value="接口调用:" style="rhombus;whiteSpace=wrap;html=1;fontSize=10;" parent="12" vertex="1">
                    <mxGeometry x="20" y="240" width="80" height="40" as="geometry"/>
                </mxCell>
                <mxCell id="47" value="code&lt;br&gt;!==&lt;br&gt;200" style="text;html=1;align=center;verticalAlign=middle;resizable=0;points=[];autosize=1;strokeColor=none;fillColor=none;fontSize=10;" parent="12" vertex="1">
                    <mxGeometry x="55" y="290" width="40" height="40" as="geometry"/>
                </mxCell>
                <mxCell id="13" value="pass" style="swimlane;startSize=20;" parent="10" vertex="1">
                    <mxGeometry x="635" y="20" width="120" height="580" as="geometry"/>
                </mxCell>
                <mxCell id="46" value="" style="edgeStyle=none;html=1;fontSize=10;entryX=1;entryY=0.5;entryDx=0;entryDy=0;fillColor=#e51400;strokeColor=#B20000;" parent="10" source="24" target="18" edge="1">
                    <mxGeometry relative="1" as="geometry">
                        <mxPoint x="205" y="380" as="targetPoint"/>
                        <Array as="points">
                            <mxPoint x="560" y="445"/>
                            <mxPoint x="450" y="445"/>
                        </Array>
                    </mxGeometry>
                </mxCell>
                <mxCell id="45" style="edgeStyle=none;html=1;exitX=1;exitY=0.5;exitDx=0;exitDy=0;fontSize=10;entryX=0;entryY=0.5;entryDx=0;entryDy=0;fillColor=#e3c800;strokeColor=#B09500;" parent="10" source="30" target="24" edge="1">
                    <mxGeometry relative="1" as="geometry">
                        <mxPoint x="150.0000000000001" y="279.7931034482758" as="targetPoint"/>
                    </mxGeometry>
                </mxCell>
                <mxCell id="64" style="edgeStyle=none;html=1;entryX=0.5;entryY=0;entryDx=0;entryDy=0;fontSize=10;fillColor=#e3c800;strokeColor=#B09500;" parent="10" target="24" edge="1">
                    <mxGeometry relative="1" as="geometry">
                        <Array as="points">
                            <mxPoint x="560" y="210"/>
                        </Array>
                        <mxPoint x="120" y="210" as="sourcePoint"/>
                    </mxGeometry>
                </mxCell>
                <mxCell id="70" value="" style="edgeStyle=none;html=1;fontSize=10;entryX=1;entryY=0.5;entryDx=0;entryDy=0;fillColor=#008a00;strokeColor=#005700;exitX=1;exitY=0.5;exitDx=0;exitDy=0;" parent="10" source="24" target="50" edge="1">
                    <mxGeometry relative="1" as="geometry">
                        <mxPoint x="330" y="240" as="targetPoint"/>
                        <Array as="points">
                            <mxPoint x="600" y="490"/>
                        </Array>
                        <mxPoint x="330" y="160" as="sourcePoint"/>
                    </mxGeometry>
                </mxCell>
            </root>
        </mxGraphModel>
    </diagram>
</mxfile>